<?xml version="1.0" encoding="UTF-8"?>
<svg width="149px" height="44px" viewBox="0 0 149 44" version="1.1" xmlns="http://www.w3.org/2000/svg" xmlns:xlink="http://www.w3.org/1999/xlink">
    <!-- Generator: Sketch 46.2 (44496) - http://www.bohemiancoding.com/sketch -->
    <title>Google Play button</title>
    <desc>Created with Sketch.</desc>
    <defs></defs>
    <g id="Concepts-V2" stroke="none" stroke-width="1" fill="none" fill-rule="evenodd">
        <g id="320" transform="translate(-163.000000, -3642.000000)">
            <g id="Google-Play-button" transform="translate(163.000000, 3642.000000)">
                <path d="M143.18337,44.00022 L5.49967,44.00022 C2.47467,44.00022 -0.00033,41.52522 -0.00033,38.50022 L-0.00033,5.50022 C-0.00033,2.47522 2.47467,0.00022 5.49967,0.00022 L143.18337,0.00022 C146.20837,0.00022 148.68337,2.47522 148.68337,5.50022 L148.68337,38.50022 C148.68337,41.52522 146.20837,44.00022 143.18337,44.00022" id="Border" fill="#9BA2A6"></path>
                <path d="M143.31163,43.07567 L5.35513,43.07567 C2.93513,43.07567 0.95513,41.09567 0.95513,38.67567 L0.95513,5.32807 C0.95513,2.90807 2.93513,0.92807 5.35513,0.92807 L143.31163,0.92807 C145.73163,0.92807 147.71163,2.90807 147.71163,5.32807 L147.71163,38.67567 C147.71163,41.09567 145.73163,43.07567 143.31163,43.07567" id="Fill" fill="#293339"></path>
                <path d="M117.722,33.00022 L119.7746,33.00022 L119.7746,19.24912 L117.722,19.24912 L117.722,33.00022 Z M136.2097,24.20242 L133.8568,30.16442 L133.7853,30.16442 L131.3444,24.20242 L129.1323,24.20242 L132.7953,32.53492 L130.7075,37.17032 L132.8481,37.17032 L138.4911,24.20242 L136.2097,24.20242 Z M124.5684,31.43822 C123.8963,31.43822 122.958,31.10272 122.958,30.27002 C122.958,29.20962 124.1262,28.80262 125.1349,28.80262 C126.0369,28.80262 126.4615,28.99732 127.0093,29.26242 C126.8509,30.53622 125.7531,31.43822 124.5684,31.43822 L124.5684,31.43822 Z M124.8159,23.90212 C123.3298,23.90212 121.7909,24.55662 121.154,26.00752 L122.9756,26.76762 C123.365,26.00752 124.091,25.75892 124.8511,25.75892 C125.9126,25.75892 126.9917,26.39582 127.0093,27.52882 L127.0093,27.66962 C126.6386,27.45732 125.8422,27.13942 124.8687,27.13942 C122.9052,27.13942 120.9065,28.21852 120.9065,30.23482 C120.9065,32.07512 122.5158,33.26092 124.3209,33.26092 C125.7003,33.26092 126.4615,32.64162 126.9389,31.91562 L127.0093,31.91562 L127.0093,32.97712 L128.9915,32.97712 L128.9915,27.70482 C128.9915,25.26392 127.1688,23.90212 124.8159,23.90212 L124.8159,23.90212 Z M112.1307,25.87662 L109.2124,25.87662 L109.2124,21.16312 L112.1307,21.16312 C113.6652,21.16312 114.5375,22.43362 114.5375,23.51932 C114.5375,24.58522 113.6652,25.87662 112.1307,25.87662 L112.1307,25.87662 Z M112.0779,19.24912 L107.1598,19.24912 L107.1598,33.00022 L109.2124,33.00022 L109.2124,27.79062 L112.0779,27.79062 C114.3538,27.79062 116.589,26.14282 116.589,23.51932 C116.589,20.89582 114.3538,19.24912 112.0779,19.24912 L112.0779,19.24912 Z M85.2588,31.44042 C83.8409,31.44042 82.654,30.25352 82.654,28.62332 C82.654,26.97552 83.8409,25.76992 85.2588,25.76992 C86.6591,25.76992 87.758,26.97552 87.758,28.62332 C87.758,30.25352 86.6591,31.44042 85.2588,31.44042 L85.2588,31.44042 Z M87.6161,24.97242 L87.5446,24.97242 C87.0837,24.42352 86.1982,23.92742 85.0817,23.92742 C82.742,23.92742 80.5981,25.98222 80.5981,28.62332 C80.5981,31.24572 82.742,33.28402 85.0817,33.28402 C86.1982,33.28402 87.0837,32.78792 87.5446,32.22032 L87.6161,32.22032 L87.6161,32.89462 C87.6161,34.68432 86.6591,35.64132 85.1169,35.64132 C83.8585,35.64132 83.0786,34.73712 82.7607,33.97482 L80.9699,34.71952 C81.4847,35.96032 82.8487,37.48382 85.1169,37.48382 C87.527,37.48382 89.5653,36.06592 89.5653,32.61082 L89.5653,24.21012 L87.6161,24.21012 L87.6161,24.97242 Z M90.9832,33.00022 L93.0391,33.00022 L93.0391,19.24802 L90.9832,19.24802 L90.9832,33.00022 Z M96.0696,28.46382 C96.0157,26.65652 97.4688,25.73472 98.5149,25.73472 C99.33,25.73472 100.0208,26.14172 100.2518,26.72692 L96.0696,28.46382 Z M102.4485,26.90402 C102.0591,25.85902 100.8711,23.92742 98.4434,23.92742 C96.0333,23.92742 94.0313,25.82272 94.0313,28.60572 C94.0313,31.22812 96.0157,33.28402 98.6744,33.28402 C100.8183,33.28402 102.0591,31.97282 102.5728,31.21052 L100.9778,30.14682 C100.4465,30.92672 99.7194,31.44042 98.6744,31.44042 C97.6283,31.44042 96.8847,30.96192 96.4062,30.02362 L102.6619,27.43532 L102.4485,26.90402 Z M52.6097,25.36292 L52.6097,27.34732 L57.3595,27.34732 C57.2176,28.46382 56.8447,29.27892 56.2782,29.84542 C55.5874,30.53732 54.5061,31.29962 52.6097,31.29962 C49.6859,31.29962 47.4001,28.94232 47.4001,26.01852 C47.4001,23.09362 49.6859,20.73742 52.6097,20.73742 C54.1871,20.73742 55.3388,21.35782 56.1891,22.15532 L57.5894,20.75502 C56.4025,19.62092 54.8251,18.75192 52.6097,18.75192 C48.6046,18.75192 45.2375,22.01342 45.2375,26.01852 C45.2375,30.02362 48.6046,33.28402 52.6097,33.28402 C54.7712,33.28402 56.4025,32.57452 57.6785,31.24572 C58.9897,29.93452 59.3967,28.09202 59.3967,26.60262 C59.3967,26.14172 59.3615,25.71712 59.2911,25.36292 L52.6097,25.36292 Z M64.7966,31.44042 C63.3787,31.44042 62.1555,30.27112 62.1555,28.60572 C62.1555,26.92162 63.3787,25.76992 64.7966,25.76992 C66.2145,25.76992 67.4366,26.92162 67.4366,28.60572 C67.4366,30.27112 66.2145,31.44042 64.7966,31.44042 L64.7966,31.44042 Z M64.7966,23.92742 C62.2094,23.92742 60.0996,25.89422 60.0996,28.60572 C60.0996,31.29962 62.2094,33.28402 64.7966,33.28402 C67.3838,33.28402 69.4925,31.29962 69.4925,28.60572 C69.4925,25.89422 67.3838,23.92742 64.7966,23.92742 L64.7966,23.92742 Z M75.0409,31.44042 C73.623,31.44042 72.4009,30.27112 72.4009,28.60572 C72.4009,26.92162 73.623,25.76992 75.0409,25.76992 C76.4588,25.76992 77.682,26.92162 77.682,28.60572 C77.682,30.27112 76.4588,31.44042 75.0409,31.44042 L75.0409,31.44042 Z M75.0409,23.92742 C72.4537,23.92742 70.345,25.89422 70.345,28.60572 C70.345,31.29962 72.4537,33.28402 75.0409,33.28402 C77.6281,33.28402 79.7368,31.29962 79.7368,28.60572 C79.7368,25.89422 77.6281,23.92742 75.0409,23.92742 L75.0409,23.92742 Z" id="Google-Play" fill="#FFFFFF"></path>
                <g id="Get-it-on" transform="translate(45.100000, 6.600220)">
                    <path d="M7.15198,4.66752 C7.15198,5.58932 6.87918,6.32302 6.33248,6.87082 C5.71098,7.52202 4.90248,7.84762 3.90808,7.84762 C2.95548,7.84762 2.14478,7.51762 1.47928,6.85652 C0.81158,6.19652 0.47938,5.37702 0.47938,4.40022 C0.47938,3.42232 0.81158,2.60392 1.47928,1.94282 C2.14478,1.28282 2.95548,0.95172 3.90808,0.95172 C4.37998,0.95172 4.83318,1.04412 5.26218,1.22892 C5.69228,1.41372 6.03658,1.65902 6.29508,1.96592 L5.71428,2.54672 C5.27758,2.02532 4.67588,1.76352 3.90808,1.76352 C3.21288,1.76352 2.61228,2.00772 2.10518,2.49612 C1.59808,2.98562 1.34508,3.61922 1.34508,4.40022 C1.34508,5.18012 1.59808,5.81482 2.10518,6.30322 C2.61228,6.79272 3.21288,7.03582 3.90808,7.03582 C4.64508,7.03582 5.25888,6.79052 5.75168,6.29882 C6.07068,5.97872 6.25548,5.53432 6.30388,4.96232 L3.90808,4.96232 L3.90808,4.16922 L7.10578,4.16922 C7.13658,4.34192 7.15198,4.50802 7.15198,4.66752 L7.15198,4.66752 Z" id="Fill-17" fill="#FFFFFF"></path>
                    <path d="M7.15198,4.66752 C7.15198,5.58932 6.87918,6.32302 6.33248,6.87082 C5.71098,7.52202 4.90248,7.84762 3.90808,7.84762 C2.95548,7.84762 2.14478,7.51762 1.47928,6.85652 C0.81158,6.19652 0.47938,5.37702 0.47938,4.40022 C0.47938,3.42232 0.81158,2.60392 1.47928,1.94282 C2.14478,1.28282 2.95548,0.95172 3.90808,0.95172 C4.37998,0.95172 4.83318,1.04412 5.26218,1.22892 C5.69228,1.41372 6.03658,1.65902 6.29508,1.96592 L5.71428,2.54672 C5.27758,2.02532 4.67588,1.76352 3.90808,1.76352 C3.21288,1.76352 2.61228,2.00772 2.10518,2.49612 C1.59808,2.98562 1.34508,3.61922 1.34508,4.40022 C1.34508,5.18012 1.59808,5.81482 2.10518,6.30322 C2.61228,6.79272 3.21288,7.03582 3.90808,7.03582 C4.64508,7.03582 5.25888,6.79052 5.75168,6.29882 C6.07068,5.97872 6.25548,5.53432 6.30388,4.96232 L3.90808,4.96232 L3.90808,4.16922 L7.10578,4.16922 C7.13658,4.34192 7.15198,4.50802 7.15198,4.66752 L7.15198,4.66752 Z" id="Stroke-19" stroke="#FFFFFF" stroke-width="0.2"></path>
                    <polygon id="Fill-21" fill="#FFFFFF" points="12.22221 1.91103 9.21701 1.91103 9.21701 4.00323 11.92741 4.00323 11.92741 4.79633 9.21701 4.79633 9.21701 6.88853 12.22221 6.88853 12.22221 7.70033 8.36891 7.70033 8.36891 1.10033 12.22221 1.10033"></polygon>
                    <polygon id="Stroke-23" stroke="#FFFFFF" stroke-width="0.2" points="12.22221 1.91103 9.21701 1.91103 9.21701 4.00323 11.92741 4.00323 11.92741 4.79633 9.21701 4.79633 9.21701 6.88853 12.22221 6.88853 12.22221 7.70033 8.36891 7.70033 8.36891 1.10033 12.22221 1.10033"></polygon>
                    <polygon id="Fill-25" fill="#FFFFFF" points="15.79831 7.7 14.95021 7.7 14.95021 1.9107 13.10661 1.9107 13.10661 1.1 17.64191 1.1 17.64191 1.9107 15.79831 1.9107"></polygon>
                    <polygon id="Stroke-27" stroke="#FFFFFF" stroke-width="0.2" points="15.79831 7.7 14.95021 7.7 14.95021 1.9107 13.10661 1.9107 13.10661 1.1 17.64191 1.1 17.64191 1.9107 15.79831 1.9107"></polygon>
                    <polygon id="Fill-29" fill="#FFFFFF" points="20.9231 7.7 21.7712 7.7 21.7712 1.1 20.9231 1.1"></polygon>
                    <polygon id="Stroke-31" stroke="#FFFFFF" stroke-width="0.2" points="20.9231 7.7 21.7712 7.7 21.7712 1.1 20.9231 1.1"></polygon>
                    <polygon id="Fill-32" fill="#FFFFFF" points="25.53287 7.7 24.68477 7.7 24.68477 1.9107 22.84117 1.9107 22.84117 1.1 27.37647 1.1 27.37647 1.9107 25.53287 1.9107"></polygon>
                    <polygon id="Stroke-33" stroke="#FFFFFF" stroke-width="0.2" points="25.53287 7.7 24.68477 7.7 24.68477 1.9107 22.84117 1.9107 22.84117 1.1 27.37647 1.1 27.37647 1.9107 25.53287 1.9107"></polygon>
                    <path d="M31.74886,6.29442 C32.23726,6.78942 32.83456,7.03582 33.54186,7.03582 C34.24806,7.03582 34.84646,6.78942 35.33486,6.29442 C35.82326,5.79942 36.06856,5.16802 36.06856,4.40022 C36.06856,3.63242 35.82326,2.99992 35.33486,2.50602 C34.84646,2.01102 34.24806,1.76352 33.54186,1.76352 C32.83456,1.76352 32.23726,2.01102 31.74886,2.50602 C31.26156,2.99992 31.01626,3.63242 31.01626,4.40022 C31.01626,5.16802 31.26156,5.79942 31.74886,6.29442 M35.96186,6.84662 C35.31286,7.51432 34.50656,7.84762 33.54186,7.84762 C32.57716,7.84762 31.77086,7.51432 31.12296,6.84662 C30.47396,6.18002 30.15056,5.36492 30.15056,4.40022 C30.15056,3.43552 30.47396,2.61932 31.12296,1.95272 C31.77086,1.28612 32.57716,0.95172 33.54186,0.95172 C34.50106,0.95172 35.30516,1.28722 35.95746,1.95712 C36.60866,2.62702 36.93426,3.44102 36.93426,4.40022 C36.93426,5.36492 36.60976,6.18002 35.96186,6.84662" id="Fill-34" fill="#FFFFFF"></path>
                    <path d="M31.74886,6.29442 C32.23726,6.78942 32.83456,7.03582 33.54186,7.03582 C34.24806,7.03582 34.84646,6.78942 35.33486,6.29442 C35.82326,5.79942 36.06856,5.16802 36.06856,4.40022 C36.06856,3.63242 35.82326,2.99992 35.33486,2.50602 C34.84646,2.01102 34.24806,1.76352 33.54186,1.76352 C32.83456,1.76352 32.23726,2.01102 31.74886,2.50602 C31.26156,2.99992 31.01626,3.63242 31.01626,4.40022 C31.01626,5.16802 31.26156,5.79942 31.74886,6.29442 L31.74886,6.29442 Z M35.96186,6.84662 C35.31286,7.51432 34.50656,7.84762 33.54186,7.84762 C32.57716,7.84762 31.77086,7.51432 31.12296,6.84662 C30.47396,6.18002 30.15056,5.36492 30.15056,4.40022 C30.15056,3.43552 30.47396,2.61932 31.12296,1.95272 C31.77086,1.28612 32.57716,0.95172 33.54186,0.95172 C34.50106,0.95172 35.30516,1.28722 35.95746,1.95712 C36.60866,2.62702 36.93426,3.44102 36.93426,4.40022 C36.93426,5.36492 36.60976,6.18002 35.96186,6.84662 L35.96186,6.84662 Z" id="Stroke-35" stroke="#FFFFFF" stroke-width="0.2"></path>
                    <polygon id="Fill-36" fill="#FFFFFF" points="38.12435 7.7 38.12435 1.1 39.15725 1.1 42.36375 6.2337 42.40115 6.2337 42.36375 4.9621 42.36375 1.1 43.21295 1.1 43.21295 7.7 42.32745 7.7 38.97135 2.3166 38.93505 2.3166 38.97135 3.5893 38.97135 7.7"></polygon>
                    <polygon id="Stroke-37" stroke="#FFFFFF" stroke-width="0.2" points="38.12435 7.7 38.12435 1.1 39.15725 1.1 42.36375 6.2337 42.40115 6.2337 42.36375 4.9621 42.36375 1.1 43.21295 1.1 43.21295 7.7 42.32745 7.7 38.97135 2.3166 38.93505 2.3166 38.97135 3.5893 38.97135 7.7"></polygon>
                </g>
                <g id="Icon" transform="translate(11.000000, 7.700220)">
                    <path d="M0.57057,0.5918 C0.25047,0.9306 0.06127,1.4564 0.06127,2.1373 L0.06127,26.4649 C0.06127,27.1469 0.25047,27.6716 0.57057,28.0104 L0.65197,28.0896 L14.27987,14.4617 L14.27987,14.3011 L14.27987,14.1405 L0.65197,0.5115 L0.57057,0.5918 Z" id="Fill-6" fill="#25D3FD"></path>
                    <path d="M18.82221,19.00635 L14.28031,14.46225 L14.28031,14.30055 L14.28031,14.13995 L18.82331,9.59695 L18.92561,9.65525 L24.30791,12.71325 C25.84571,13.58665 25.84571,15.01555 24.30791,15.89005 L18.92561,18.94805 L18.82221,19.00635 Z" id="Fill-8" fill="#FCC02D"></path>
                    <path d="M18.92572,18.94739 L14.28042,14.30099 L0.57112,28.01029 C1.07712,28.54709 1.91422,28.61309 2.85692,28.07739 L18.92572,18.94739" id="Fill-10" fill="#F6394C"></path>
                    <path d="M18.92572,9.6547 L2.85692,0.5247 C1.91422,-0.011 1.07712,0.055 0.57112,0.5918 L14.28042,14.3011 L18.92572,9.6547 Z" id="Fill-12" fill="#27EE7B"></path>
                </g>
            </g>
        </g>
    </g>
</svg>