<?xml version="1.0" encoding="UTF-8"?>
<svg width="149px" height="44px" viewBox="0 0 149 44" version="1.1" xmlns="http://www.w3.org/2000/svg" xmlns:xlink="http://www.w3.org/1999/xlink">
    <!-- Generator: Sketch 46.2 (44496) - http://www.bohemiancoding.com/sketch -->
    <title>iOS Button</title>
    <desc>Created with Sketch.</desc>
    <defs></defs>
    <g id="Concepts-V2" stroke="none" stroke-width="1" fill="none" fill-rule="evenodd">
        <g id="320" transform="translate(-8.000000, -3642.000000)">
            <g id="iOS-Button" transform="translate(8.000000, 3642.000000)">
                <path d="M143.21703,44 L5.20223,44 C2.33343,44 0.00033,41.6592 0.00033,38.7937 L0.00033,5.1986 C0.00033,2.332 2.33343,0 5.20223,0 L143.21703,0 C146.08253,0 148.50033,2.332 148.50033,5.1986 L148.50033,38.7937 C148.50033,41.6592 146.08253,44 143.21703,44" id="Border-color" fill="#9BA2A6"></path>
                <path d="M147.43542,38.79436 C147.43542,41.12196 145.55002,43.00736 143.21802,43.00736 L5.20212,43.00736 C2.87122,43.00736 0.97922,41.12196 0.97922,38.79436 L0.97922,5.19816 C0.97922,2.87056 2.87122,0.97856 5.20212,0.97856 L143.21692,0.97856 C145.55002,0.97856 147.43432,2.87056 147.43432,5.19816 L147.43432,38.79436 L147.43542,38.79436 Z" id="Fill" fill="#293339"></path>
                <g id="Download-on-the-App-Store" transform="translate(46.200000, 6.600000)" fill="#FFFFFF">
                    <path d="M8.53094,21.95061 L7.29234,18.12811 C7.16254,17.73761 6.91614,16.81801 6.55424,15.37041 L6.51024,15.37041 C6.36614,15.99411 6.13404,16.91261 5.81614,18.12811 L4.59954,21.95061 L8.53094,21.95061 Z M12.80994,28.05451 L10.31184,28.05451 L8.94344,23.75461 L4.18704,23.75461 L2.88354,28.05451 L0.45144,28.05451 L5.16384,13.41571 L8.07444,13.41571 L12.80994,28.05451 Z" id="Fill-10"></path>
                    <path d="M22.53922,22.7326 C22.53922,21.7052 22.30822,20.8582 21.84402,20.1916 C21.33692,19.4975 20.65712,19.1488 19.80242,19.1488 C19.22382,19.1488 18.69802,19.3424 18.22832,19.7252 C17.75752,20.1091 17.44952,20.6118 17.30542,21.2355 C17.23282,21.5248 17.19652,21.7635 17.19652,21.9505 L17.19652,23.7105 C17.19652,24.4783 17.43192,25.1262 17.90272,25.6542 C18.37242,26.1833 18.98512,26.4473 19.73752,26.4473 C20.62082,26.4473 21.30832,26.1063 21.80112,25.4265 C22.29282,24.7456 22.53922,23.848 22.53922,22.7326 M24.92842,22.6468 C24.92842,24.442 24.44332,25.861 23.47312,26.9027 C22.60412,27.83 21.52612,28.2931 20.23692,28.2931 C18.84762,28.2931 17.84772,27.7937 17.24052,26.7938 L17.19652,26.7938 L17.19652,32.3543 L14.85132,32.3543 L14.85132,20.9737 C14.85132,19.8451 14.82162,18.6868 14.76442,17.4988 L16.82692,17.4988 L16.95782,19.1719 L17.00072,19.1719 C17.78282,17.9113 18.96972,17.2821 20.56252,17.2821 C21.80882,17.2821 22.84722,17.7738 23.67992,18.7583 C24.51262,19.7439 24.92842,21.0397 24.92842,22.6468" id="Fill-12"></path>
                    <path d="M34.68003,22.7326 C34.68003,21.7052 34.44793,20.8582 33.98373,20.1916 C33.47663,19.4975 32.79793,19.1488 31.94323,19.1488 C31.36243,19.1488 30.83883,19.3424 30.36803,19.7252 C29.89723,20.1091 29.59143,20.6118 29.44623,21.2355 C29.37363,21.5248 29.33733,21.7635 29.33733,21.9505 L29.33733,23.7105 C29.33733,24.4783 29.57273,25.1262 30.04133,25.6542 C30.51213,26.1833 31.12483,26.4473 31.87833,26.4473 C32.76163,26.4473 33.44913,26.1063 33.94083,25.4265 C34.43253,24.7456 34.68003,23.848 34.68003,22.7326 M37.06923,22.6468 C37.06923,24.442 36.58303,25.861 35.61283,26.9027 C34.74493,27.83 33.66583,28.2931 32.37663,28.2931 C30.98733,28.2931 29.98743,27.7937 29.38023,26.7938 L29.33733,26.7938 L29.33733,32.3543 L26.99213,32.3543 L26.99213,20.9737 C26.99213,19.8451 26.96243,18.6868 26.90523,17.4988 L28.96773,17.4988 L29.09863,19.1719 L29.14153,19.1719 C29.92363,17.9113 31.10943,17.2821 32.70333,17.2821 C33.94743,17.2821 34.98693,17.7738 35.82073,18.7583 C36.65233,19.7439 37.06923,21.0397 37.06923,22.6468" id="Fill-14"></path>
                    <path d="M50.64301,23.94975 C50.64301,25.19495 50.21071,26.20805 49.34281,26.99015 C48.38911,27.84485 47.06141,28.27165 45.35531,28.27165 C43.78121,28.27165 42.51731,27.96695 41.56141,27.35975 L42.10481,25.40395 C43.13441,26.02765 44.26411,26.33895 45.49501,26.33895 C46.37831,26.33895 47.06581,26.13875 47.55971,25.74055 C48.05251,25.34235 48.29671,24.80775 48.29671,24.14115 C48.29671,23.54715 48.09541,23.04665 47.68841,22.63965 C47.28471,22.23375 46.61041,21.85755 45.66991,21.50775 C43.10581,20.55185 41.82541,19.15265 41.82541,17.31015 C41.82541,16.10675 42.27531,15.12005 43.17291,14.35115 C44.06831,13.58335 45.26291,13.19835 46.75671,13.19835 C48.08881,13.19835 49.19541,13.43045 50.07761,13.89355 L49.49131,15.80535 C48.66631,15.35655 47.73351,15.13105 46.68961,15.13105 C45.86461,15.13105 45.22001,15.33455 44.75801,15.74045 C44.36751,16.10235 44.17171,16.54345 44.17171,17.06485 C44.17171,17.64345 44.39501,18.12195 44.84491,18.49815 C45.23541,18.84575 45.94491,19.22195 46.97341,19.62785 C48.23291,20.13495 49.15801,20.72785 49.75311,21.40765 C50.34601,22.08965 50.64301,22.93665 50.64301,23.94975" id="Fill-16"></path>
                    <path d="M58.39669,19.25858 L55.81169,19.25858 L55.81169,24.38348 C55.81169,25.68698 56.26709,26.33928 57.18119,26.33928 C57.59919,26.33928 57.94789,26.30188 58.22289,26.23038 L58.28669,28.01128 C57.82469,28.18398 57.21749,28.27088 56.46289,28.27088 C55.53669,28.27088 54.81289,27.98928 54.29149,27.42498 C53.77119,26.85958 53.50939,25.91138 53.50939,24.57928 L53.50939,19.25858 L51.96829,19.25858 L51.96829,17.49858 L53.50939,17.49858 L53.50939,15.56588 L55.81169,14.87068 L55.81169,17.49858 L58.39669,17.49858 L58.39669,19.25858 Z" id="Fill-18"></path>
                    <path d="M67.62635,22.76593 C67.62635,21.79243 67.41845,20.95753 66.99715,20.26123 C66.50435,19.41863 65.80255,18.99733 64.89175,18.99733 C63.94795,18.99733 63.23295,19.41863 62.74125,20.26123 C62.31995,20.95753 62.11095,21.80673 62.11095,22.80993 C62.11095,23.78343 62.31995,24.61833 62.74125,25.31353 C63.24835,26.15613 63.95675,26.57743 64.86975,26.57743 C65.76625,26.57743 66.46805,26.14843 66.97515,25.29263 C67.40965,24.58093 67.62635,23.73833 67.62635,22.76593 M70.06065,22.69003 C70.06065,24.31143 69.59645,25.64353 68.67025,26.68523 C67.69895,27.75773 66.41085,28.29233 64.80375,28.29233 C63.25385,28.29233 62.02075,27.77973 61.10115,26.75123 C60.18155,25.72273 59.72175,24.42693 59.72175,22.86383 C59.72175,21.22813 60.19475,19.88833 61.14405,18.84553 C62.09225,17.80273 63.37045,17.28243 64.97755,17.28243 C66.52635,17.28243 67.77265,17.79503 68.71315,18.82463 C69.61185,19.82343 70.06065,21.11153 70.06065,22.69003" id="Fill-20"></path>
                    <path d="M77.68321,19.56152 C77.45111,19.51862 77.20361,19.49662 76.94401,19.49662 C76.11901,19.49662 75.48101,19.80902 75.03221,20.43162 C74.64061,20.98162 74.44591,21.67682 74.44591,22.51612 L74.44591,28.05462 L72.10181,28.05462 L72.12271,20.82212 C72.12271,19.60552 72.09301,18.49782 72.03471,17.49902 L74.07851,17.49902 L74.16431,19.51862 L74.22811,19.51862 C74.47561,18.82452 74.86611,18.26572 75.40181,17.84662 C75.92321,17.47042 76.48861,17.28232 77.09691,17.28232 C77.31361,17.28232 77.50941,17.29662 77.68321,17.32522 L77.68321,19.56152 Z" id="Fill-22"></path>
                    <path d="M85.9353,21.66912 C85.9507,20.97392 85.7978,20.37332 85.4799,19.86622 C85.074,19.21502 84.4503,18.88942 83.611,18.88942 C82.8432,18.88942 82.2206,19.20732 81.7432,19.84532 C81.3527,20.35242 81.1206,20.95962 81.0502,21.66912 L85.9353,21.66912 Z M88.1716,22.27742 C88.1716,22.69762 88.1441,23.05182 88.0858,23.34112 L81.0502,23.34112 C81.0777,24.38392 81.4176,25.18032 82.0699,25.73032 C82.6628,26.22312 83.4306,26.46842 84.3711,26.46842 C85.4128,26.46842 86.3632,26.30232 87.2179,25.96902 L87.5853,27.59812 C86.5865,28.03262 85.4073,28.24932 84.0466,28.24932 C82.4098,28.24932 81.125,27.76862 80.19,26.80502 C79.2583,25.84252 78.7897,24.55002 78.7897,22.92862 C78.7897,21.33582 79.2231,20.01032 80.0932,18.95322 C81.0051,17.82462 82.236,17.26032 83.7848,17.26032 C85.3061,17.26032 86.4578,17.82462 87.2399,18.95322 C87.8603,19.85192 88.1716,20.95962 88.1716,22.27742 L88.1716,22.27742 Z" id="Fill-24"></path>
                    <path d="M6.53928,4.44191 C6.53928,3.60261 6.31708,2.95911 5.87268,2.51031 C5.42718,2.06261 4.77818,1.83821 3.92458,1.83821 C3.56158,1.83821 3.25248,1.86351 2.99618,1.91301 L2.99618,7.29091 C3.13808,7.31181 3.39878,7.32281 3.77498,7.32281 C4.65718,7.32281 5.33808,7.07751 5.81878,6.58691 C6.29838,6.09521 6.53928,5.38131 6.53928,4.44191 M7.75478,4.41001 C7.75478,5.70471 7.36758,6.67931 6.59208,7.33381 C5.87378,7.93771 4.85298,8.24021 3.53078,8.24021 C2.87518,8.24021 2.31308,8.21161 1.84448,8.15551 L1.84448,1.08031 C2.45608,0.98131 3.11718,0.93181 3.82888,0.93181 C5.08838,0.93181 6.03768,1.20571 6.67788,1.75351 C7.39508,2.37171 7.75478,3.25721 7.75478,4.41001" id="Fill-26"></path>
                    <path d="M13.00398,5.57843 C13.00398,5.09993 12.90058,4.68963 12.69488,4.34753 C12.45288,3.93393 12.10858,3.72713 11.65978,3.72713 C11.19668,3.72713 10.84468,3.93393 10.60268,4.34753 C10.39698,4.68963 10.29358,5.10763 10.29358,5.59933 C10.29358,6.07783 10.39698,6.48813 10.60268,6.83023 C10.85238,7.24383 11.19998,7.45063 11.64988,7.45063 C12.08988,7.45063 12.43418,7.24053 12.68388,6.81923 C12.89728,6.47053 13.00398,6.05693 13.00398,5.57843 M14.19968,5.54103 C14.19968,6.33743 13.97198,6.99193 13.51658,7.50343 C13.03918,8.03033 12.40668,8.29433 11.61688,8.29433 C10.85568,8.29433 10.24958,8.04133 9.79748,7.53643 C9.34648,7.03153 9.12098,6.39463 9.12098,5.62573 C9.12098,4.82273 9.35308,4.16493 9.81948,3.65233 C10.28478,3.13973 10.91288,2.88453 11.70158,2.88453 C12.46388,2.88453 13.07438,3.13643 13.53748,3.64133 C13.97858,4.13303 14.19968,4.76553 14.19968,5.54103" id="Fill-28"></path>
                    <path d="M22.84161,2.99068 L21.21911,8.17608 L20.16421,8.17608 L19.49101,5.92438 C19.32051,5.36338 19.18191,4.80458 19.07411,4.25018 L19.05431,4.25018 C18.95421,4.81888 18.81561,5.37768 18.63741,5.92438 L17.92241,8.17608 L16.85541,8.17608 L15.32971,2.99068 L16.51441,2.99068 L17.10071,5.45578 C17.24261,6.03878 17.36031,6.59318 17.45381,7.12008 L17.47361,7.12008 C17.55941,6.68668 17.70131,6.13448 17.90151,5.46568 L18.63741,2.99068 L19.57571,2.99068 L20.28081,5.41288 C20.45131,6.00358 20.58991,6.57228 20.69661,7.12008 L20.72851,7.12008 C20.80661,6.58658 20.92431,6.01788 21.08161,5.41288 L21.71081,2.99068 L22.84161,2.99068 Z" id="Fill-30"></path>
                    <path d="M28.81758,8.17641 L27.66478,8.17641 L27.66478,5.20641 C27.66478,4.29121 27.31718,3.83361 26.61978,3.83361 C26.27768,3.83361 26.00048,3.95901 25.78708,4.21091 C25.57478,4.46281 25.46698,4.75981 25.46698,5.10081 L25.46698,8.17641 L24.31418,8.17641 L24.31418,4.47381 C24.31418,4.01841 24.29988,3.52451 24.27238,2.99101 L25.28548,2.99101 L25.33938,3.80061 L25.37128,3.80061 C25.50548,3.54981 25.70568,3.34081 25.96858,3.17581 C26.28098,2.98111 26.63078,2.88431 27.01358,2.88431 C27.49868,2.88431 27.90018,3.04051 28.22028,3.35401 C28.61848,3.73791 28.81758,4.30991 28.81758,5.07111 L28.81758,8.17641 Z" id="Fill-32"></path>
                    <polygon id="Fill-34" points="30.8451 8.1763 31.9968 8.1763 31.9968 0.6116 30.8451 0.6116"></polygon>
                    <path d="M37.58689,5.57843 C37.58689,5.09993 37.48349,4.68963 37.27779,4.34753 C37.03689,3.93393 36.69149,3.72713 36.24379,3.72713 C35.77959,3.72713 35.42759,3.93393 35.18669,4.34753 C34.98099,4.68963 34.87759,5.10763 34.87759,5.59933 C34.87759,6.07783 34.98099,6.48813 35.18669,6.83023 C35.43639,7.24383 35.78399,7.45063 36.23389,7.45063 C36.67389,7.45063 37.01709,7.24053 37.26679,6.81923 C37.48129,6.47053 37.58689,6.05693 37.58689,5.57843 M38.78369,5.54103 C38.78369,6.33743 38.55599,6.99193 38.10059,7.50343 C37.62319,8.03033 36.98959,8.29433 36.20089,8.29433 C35.43859,8.29433 34.83249,8.04133 34.38149,7.53643 C33.93049,7.03153 33.70499,6.39463 33.70499,5.62573 C33.70499,4.82273 33.93709,4.16493 34.40239,3.65233 C34.86879,3.13973 35.49689,2.88453 36.28449,2.88453 C37.04789,2.88453 37.65729,3.13643 38.12149,3.64133 C38.56259,4.13303 38.78369,4.76553 38.78369,5.54103" id="Fill-36"></path>
                    <path d="M43.16642,6.3943 L43.16642,5.5946 C41.89482,5.5726 41.25902,5.9213 41.25902,6.6396 C41.25902,6.9102 41.33162,7.1126 41.48012,7.2479 C41.62862,7.3832 41.81672,7.4503 42.04332,7.4503 C42.29632,7.4503 42.53282,7.3711 42.74732,7.2105 C42.96402,7.051 43.09822,6.8464 43.14662,6.5978 C43.15982,6.5406 43.16642,6.4724 43.16642,6.3943 M44.36322,8.1763 L43.32702,8.1763 L43.24122,7.579 L43.20932,7.579 C42.85512,8.0553 42.35022,8.294 41.69462,8.294 C41.20512,8.294 40.80912,8.1367 40.51102,7.8243 C40.24042,7.5394 40.10512,7.1874 40.10512,6.7683 C40.10512,6.1347 40.36912,5.6518 40.89932,5.3163 C41.43062,4.983 42.17642,4.8191 43.13672,4.8257 L43.13672,4.73 C43.13672,4.0469 42.77702,3.7059 42.05982,3.7059 C41.54832,3.7059 41.09732,3.8335 40.70902,4.0898 L40.47472,3.3319 C40.95542,3.0338 41.55052,2.8842 42.25342,2.8842 C43.60862,2.8842 44.28732,3.5992 44.28732,5.0292 L44.28732,6.9388 C44.28732,7.458 44.31372,7.8705 44.36322,8.1763" id="Fill-37"></path>
                    <path d="M49.71912,5.98928 L49.71912,5.12468 C49.71912,4.97508 49.70812,4.85408 49.68722,4.76168 C49.62232,4.48448 49.48262,4.25128 49.27032,4.06318 C49.05582,3.87508 48.79732,3.78048 48.49922,3.78048 C48.06912,3.78048 47.73142,3.95098 47.48502,4.29308 C47.23972,4.63408 47.11542,5.07188 47.11542,5.60428 C47.11542,6.11688 47.23312,6.53378 47.46962,6.85388 C47.71932,7.19488 48.05592,7.36538 48.47722,7.36538 C48.85562,7.36538 49.15812,7.22348 49.38802,6.93858 C49.60912,6.67568 49.71912,6.35888 49.71912,5.98928 M50.91372,8.17608 L49.89072,8.17608 L49.83682,7.34448 L49.80492,7.34448 C49.47822,7.97698 48.92162,8.29378 48.14062,8.29378 C47.51472,8.29378 46.99552,8.04848 46.58302,7.55788 C46.17052,7.06728 45.96372,6.43038 45.96372,5.64718 C45.96372,4.80788 46.18702,4.12918 46.63582,3.60998 C47.07032,3.12598 47.60272,2.88398 48.23632,2.88398 C48.93262,2.88398 49.42102,3.11938 49.69822,3.58798 L49.71912,3.58798 L49.71912,0.61138 L50.87302,0.61138 L50.87302,6.77908 C50.87302,7.28398 50.88622,7.74928 50.91372,8.17608" id="Fill-38"></path>
                    <path d="M59.57831,5.57843 C59.57831,5.09993 59.47491,4.68963 59.26921,4.34753 C59.02611,3.93393 58.68291,3.72713 58.23301,3.72713 C57.77101,3.72713 57.41901,3.93393 57.17591,4.34753 C56.97021,4.68963 56.86681,5.10763 56.86681,5.59933 C56.86681,6.07783 56.97021,6.48813 57.17591,6.83023 C57.42561,7.24383 57.77321,7.45063 58.22311,7.45063 C58.66311,7.45063 59.00851,7.24053 59.25821,6.81923 C59.47051,6.47053 59.57831,6.05693 59.57831,5.57843 M60.77291,5.54103 C60.77291,6.33743 60.54521,6.99193 60.08981,7.50343 C59.61241,8.03033 58.98101,8.29433 58.19011,8.29433 C57.43001,8.29433 56.82391,8.04133 56.37071,7.53643 C55.91971,7.03153 55.69421,6.39463 55.69421,5.62573 C55.69421,4.82273 55.92631,4.16493 56.39271,3.65233 C56.85801,3.13973 57.48611,2.88453 58.27591,2.88453 C59.03711,2.88453 59.64871,3.13643 60.11071,3.64133 C60.55181,4.13303 60.77291,4.76553 60.77291,5.54103" id="Fill-39"></path>
                    <path d="M66.97108,8.17641 L65.81938,8.17641 L65.81938,5.20641 C65.81938,4.29121 65.47178,3.83361 64.77328,3.83361 C64.43118,3.83361 64.15398,3.95901 63.94168,4.21091 C63.72938,4.46281 63.62158,4.75981 63.62158,5.10081 L63.62158,8.17641 L62.46768,8.17641 L62.46768,4.47381 C62.46768,4.01841 62.45558,3.52451 62.42698,2.99101 L63.43898,2.99101 L63.49288,3.80061 L63.52478,3.80061 C63.66008,3.54981 63.86028,3.34081 64.12208,3.17581 C64.43558,2.98111 64.78428,2.88431 65.16818,2.88431 C65.65218,2.88431 66.05368,3.04051 66.37378,3.35401 C66.77308,3.73791 66.97108,4.30991 66.97108,5.07111 L66.97108,8.17641 Z" id="Fill-40"></path>
                    <path d="M74.72905,3.85484 L73.45965,3.85484 L73.45965,6.37384 C73.45965,7.01404 73.68515,7.33414 74.13175,7.33414 C74.33855,7.33414 74.51015,7.31544 74.64545,7.28024 L74.67515,8.15474 C74.44745,8.24054 74.14935,8.28344 73.77975,8.28344 C73.32435,8.28344 72.96905,8.14374 72.71385,7.86764 C72.45645,7.58934 72.32885,7.12404 72.32885,6.46954 L72.32885,3.85484 L71.57095,3.85484 L71.57095,2.99024 L72.32885,2.99024 L72.32885,2.04094 L73.45965,1.69994 L73.45965,2.99024 L74.72905,2.99024 L74.72905,3.85484 Z" id="Fill-41"></path>
                    <path d="M80.83284,8.17641 L79.67894,8.17641 L79.67894,5.22841 C79.67894,4.29891 79.33134,3.83361 78.63504,3.83361 C78.10044,3.83361 77.73524,4.10311 77.53504,4.64321 C77.50094,4.75651 77.48114,4.89511 77.48114,5.05791 L77.48114,8.17641 L76.32944,8.17641 L76.32944,0.61171 L77.48114,0.61171 L77.48114,3.73681 L77.50314,3.73681 C77.86614,3.16811 78.38534,2.88431 79.06074,2.88431 C79.53704,2.88431 79.93304,3.04051 80.24654,3.35401 C80.63704,3.74451 80.83284,4.32421 80.83284,5.09311 L80.83284,8.17641 Z" id="Fill-42"></path>
                    <path d="M86.0277,5.03965 C86.0365,4.69755 85.9606,4.40275 85.8044,4.15415 C85.6042,3.83405 85.2995,3.67345 84.887,3.67345 C84.5108,3.67345 84.2039,3.82965 83.9696,4.14315 C83.7782,4.39285 83.6649,4.69095 83.6275,5.03965 L86.0277,5.03965 Z M87.1277,5.33775 C87.1277,5.54455 87.1123,5.71835 87.0848,5.86135 L83.6275,5.86135 C83.6429,6.37285 83.8079,6.76445 84.128,7.03505 C84.4206,7.27705 84.799,7.39805 85.261,7.39805 C85.7725,7.39805 86.2378,7.31555 86.6591,7.15275 L86.8395,7.95245 C86.3478,8.16585 85.7703,8.27255 85.0993,8.27255 C84.2963,8.27255 83.6649,8.03605 83.2073,7.56305 C82.7475,7.09005 82.5198,6.45535 82.5198,5.65785 C82.5198,4.87575 82.7321,4.22455 83.16,3.70535 C83.6066,3.15095 84.2105,2.87375 84.9728,2.87375 C85.7186,2.87375 86.2851,3.15095 86.6679,3.70535 C86.9748,4.14755 87.1277,4.69095 87.1277,5.33775 L87.1277,5.33775 Z" id="Fill-43"></path>
                </g>
                <g id="Icon" transform="translate(13.200000, 6.600000)" fill="#FFFFFF">
                    <path d="M19.94069,15.16207 C19.90879,11.61677 22.84359,9.89197 22.97779,9.81167 C21.31569,7.38837 18.73949,7.05617 17.83419,7.03087 C15.67049,6.80317 13.57169,8.32557 12.46949,8.32557 C11.34529,8.32557 9.64799,7.05287 7.81869,7.09137 C5.46579,7.12767 3.26249,8.49057 2.05469,10.60587 C-0.43681,14.92117 1.42219,21.26267 3.80919,24.75077 C5.00379,26.45907 6.39969,28.36647 8.22679,28.29937 C10.01429,28.22457 10.68089,27.15977 12.83909,27.15977 C14.97639,27.15977 15.60339,28.29937 17.46679,28.25647 C19.38519,28.22457 20.59299,26.54047 21.74579,24.81677 C23.12629,22.85877 23.68069,20.93047 23.70269,20.83147 C23.65759,20.81607 19.97699,19.41247 19.94069,15.16207" id="Fill-6"></path>
                    <path d="M16.42047,4.73682 C17.38187,3.53452 18.03967,1.89882 17.85707,0.23892 C16.46557,0.30052 14.72537,1.20032 13.72327,2.37732 C12.83667,3.41352 12.04467,5.11192 12.24927,6.70912 C13.81237,6.82462 15.41727,5.92042 16.42047,4.73682" id="Fill-8"></path>
                </g>
            </g>
        </g>
    </g>
</svg>